<?xml version="1.0" encoding="iso-8859-1"?>
<!-- Generator: Adobe Illustrator 19.0.0, SVG Export Plug-In . SVG Version: 6.00 Build 0)  -->
<svg version="1.1" id="Capa_1" xmlns="http://www.w3.org/2000/svg" xmlns:xlink="http://www.w3.org/1999/xlink" x="0px" y="0px"
	 viewBox="0 0 512 512" style="enable-background:new 0 0 512 512;" xml:space="preserve">
<g>
	<g>
		<path d="M437.02,74.98C388.668,26.629,324.381,0,256,0C187.62,0,123.333,26.628,74.981,74.98C26.629,123.333,0,187.62,0,256
			s26.629,132.667,74.981,181.02C123.333,485.371,187.62,512,256,512c68.381,0,132.668-26.629,181.02-74.98
			C485.371,388.668,512,324.381,512,256C512,187.62,485.371,123.332,437.02,74.98z M341.794,148.989
			c2.79-2.79,6.659-4.39,10.609-4.39c3.941,0,7.811,1.6,10.601,4.39c2.8,2.8,4.399,6.66,4.399,10.61s-1.6,7.82-4.399,10.61
			c-2.79,2.79-6.66,4.39-10.601,4.39c-3.95,0-7.819-1.6-10.609-4.39c-2.79-2.79-4.391-6.66-4.391-10.61
			S339.004,151.789,341.794,148.989z M148.993,148.999c2.79-2.8,6.66-4.4,10.61-4.4c3.94,0,7.811,1.6,10.601,4.4
			c2.8,2.79,4.399,6.65,4.399,10.6s-1.6,7.81-4.399,10.61c-2.79,2.79-6.66,4.39-10.601,4.39c-3.96,0-7.82-1.6-10.61-4.39
			c-2.789-2.79-4.39-6.66-4.39-10.61S146.204,151.789,148.993,148.999z M256,415.6c-88.004,0-159.6-71.596-159.6-159.6
			c0-8.284,6.716-15,15-15h289.2c8.284,0,15,6.716,15,15C415.6,344.004,344.004,415.6,256,415.6z"/>
	</g>
</g>
<g>
</g>
<g>
</g>
<g>
</g>
<g>
</g>
<g>
</g>
<g>
</g>
<g>
</g>
<g>
</g>
<g>
</g>
<g>
</g>
<g>
</g>
<g>
</g>
<g>
</g>
<g>
</g>
<g>
</g>
</svg>
